<svg width="1024" height="1024" viewBox="0 0 1024 1024" fill="none" xmlns="http://www.w3.org/2000/svg">
  <defs>
    <linearGradient id="base" x1="174" y1="112" x2="850" y2="912" gradientUnits="userSpaceOnUse">
      <stop stop-color="#FFF7EA"/>
      <stop offset="1" stop-color="#F2E3CE"/>
    </linearGradient>
    <linearGradient id="paper" x1="297" y1="194" x2="726" y2="782" gradientUnits="userSpaceOnUse">
      <stop stop-color="#FFFFFA"/>
      <stop offset="1" stop-color="#F4EEE4"/>
    </linearGradient>
    <linearGradient id="coral" x1="655" y1="656" x2="830" y2="844" gradientUnits="userSpaceOnUse">
      <stop stop-color="#FF8A72"/>
      <stop offset="1" stop-color="#DF4F45"/>
    </linearGradient>
    <linearGradient id="teal" x1="344" y1="251" x2="671" y2="705" gradientUnits="userSpaceOnUse">
      <stop stop-color="#31C6B7"/>
      <stop offset="1" stop-color="#178F9F"/>
    </linearGradient>
    <filter id="shadow" x="78" y="86" width="868" height="878" filterUnits="userSpaceOnUse" color-interpolation-filters="sRGB">
      <feFlood flood-opacity="0" result="BackgroundImageFix"/>
      <feColorMatrix in="SourceAlpha" type="matrix" values="0 0 0 0 0 0 0 0 0 0 0 0 0 0 0 0 0 0 127 0" result="hardAlpha"/>
      <feOffset dy="30"/>
      <feGaussianBlur stdDeviation="35"/>
      <feComposite in2="hardAlpha" operator="out"/>
      <feColorMatrix type="matrix" values="0 0 0 0 0.19 0 0 0 0 0.12 0 0 0 0 0.08 0 0 0 0.25 0"/>
      <feBlend mode="normal" in2="BackgroundImageFix" result="effect1_dropShadow"/>
      <feBlend mode="normal" in="SourceGraphic" in2="effect1_dropShadow" result="shape"/>
    </filter>
    <filter id="paperShadow" x="190" y="142" width="653" height="712" filterUnits="userSpaceOnUse" color-interpolation-filters="sRGB">
      <feFlood flood-opacity="0" result="BackgroundImageFix"/>
      <feColorMatrix in="SourceAlpha" type="matrix" values="0 0 0 0 0 0 0 0 0 0 0 0 0 0 0 0 0 0 127 0" result="hardAlpha"/>
      <feOffset dy="22"/>
      <feGaussianBlur stdDeviation="24"/>
      <feComposite in2="hardAlpha" operator="out"/>
      <feColorMatrix type="matrix" values="0 0 0 0 0.28 0 0 0 0 0.18 0 0 0 0 0.1 0 0 0 0.20 0"/>
      <feBlend mode="normal" in2="BackgroundImageFix" result="effect1_dropShadow"/>
      <feBlend mode="normal" in="SourceGraphic" in2="effect1_dropShadow" result="shape"/>
    </filter>
  </defs>

  <rect x="92" y="92" width="840" height="840" rx="202" fill="url(#base)" filter="url(#shadow)"/>
  <path d="M163 312C188 189 267 133 393 125H634C784 125 872 227 891 372V642C876 795 786 884 635 900H392C243 886 156 799 132 654V410C134 373 143 339 163 312Z" fill="#FFFDF6" opacity="0.18"/>

  <g filter="url(#paperShadow)" transform="rotate(-5 516 488)">
    <rect x="256" y="190" width="512" height="602" rx="72" fill="url(#paper)"/>
    <rect x="281" y="216" width="462" height="550" rx="52" stroke="#DFCDB6" stroke-width="10" opacity="0.55"/>
    <path d="M347 322C413 304 473 305 527 323C574 339 621 337 682 314" stroke="#D8C8B4" stroke-width="10" stroke-linecap="round" opacity="0.35"/>
  </g>

  <g stroke="#2D3438" stroke-width="18" stroke-linecap="round" stroke-linejoin="round">
    <path d="M359 393H489V493H359V393Z" fill="#FFFDF7"/>
    <path d="M629 372L704 444L626 518L552 446L629 372Z" fill="#FFFDF7"/>
    <path d="M414 574C459 574 496 611 496 657C496 703 459 740 414 740C368 740 331 703 331 657C331 611 368 574 414 574Z" fill="#FFFDF7"/>
    <path d="M489 443C514 443 532 444 552 446"/>
    <path d="M626 518C605 562 556 623 496 657"/>
  </g>

  <g>
    <circle cx="489" cy="443" r="24" fill="url(#teal)" stroke="#F8FFFC" stroke-width="10"/>
    <circle cx="552" cy="446" r="22" fill="#34C3B2" stroke="#F8FFFC" stroke-width="9"/>
    <circle cx="496" cy="657" r="24" fill="#29A8A7" stroke="#F8FFFC" stroke-width="10"/>
  </g>

  <g transform="rotate(-35 705 756)">
    <rect x="544" y="712" width="315" height="70" rx="35" fill="url(#coral)"/>
    <path d="M824 712H867C888 712 900 736 888 754L861 782H824V712Z" fill="#F7D6B0"/>
    <path d="M867 712L900 746L861 782L840 748L867 712Z" fill="#2D3438"/>
    <path d="M560 729H777" stroke="#FFB1A1" stroke-width="12" stroke-linecap="round" opacity="0.75"/>
    <rect x="523" y="712" width="52" height="70" rx="24" fill="#3A4246"/>
  </g>

  <path d="M300 304C334 289 377 279 430 275" stroke="#FFFFFF" stroke-width="16" stroke-linecap="round" opacity="0.45"/>
  <path d="M226 252C252 177 338 147 431 143" stroke="#FFFFFF" stroke-width="10" stroke-linecap="round" opacity="0.42"/>
</svg>
